TITLE "Fuzzy Warbles 1"
PERFORMER "Andy Partridge"
REM GENRE "Rock"
REM DATE "2002"
REM DISCID F40DE013
FILE "Fuzzy Warbles 1.flac" WAVE
  TRACK 01 AUDIO
    TITLE "Dame Fortune"
    ISRC GBFHR0200001
    INDEX 01 00:00:00
  TRACK 02 AUDIO
    TITLE "Born Out Of Your Mouth"
    ISRC GBFHR0200002
    INDEX 01 02:40:25
  TRACK 03 AUDIO
    TITLE "Howlin' Burston"
    ISRC GBFHR0200003
    INDEX 01 05:29:20
  TRACK 04 AUDIO
    TITLE "Don't Let Us Bug Ya"
    ISRC GBFHR0200004
    INDEX 01 06:05:37
  TRACK 05 AUDIO
    TITLE "That Wag"
    ISRC GBFHR0200005
    INDEX 00 08:48:25
    INDEX 01 08:49:07
  TRACK 06 AUDIO
    TITLE "That Wave"
    ISRC GBFHR0200006
    INDEX 01 13:41:45
  TRACK 07 AUDIO
    TITLE "Ocean's Daughter"
    ISRC GBFHR0200007
    INDEX 01 17:24:52
  TRACK 08 AUDIO
    TITLE "Everything"
    ISRC GBFHR0200008
    INDEX 01 18:37:67
  TRACK 09 AUDIO
    TITLE "Mogo"
    ISRC GBFHR0200009
    INDEX 01 21:55:15
  TRACK 10 AUDIO
    TITLE "Goosey Goosey"
    ISRC GBFHR0200010
    INDEX 01 24:11:37
  TRACK 11 AUDIO
    TITLE "Merely A Man"
    ISRC GBFHR0200011
    INDEX 01 28:06:32
  TRACK 12 AUDIO
    TITLE "EPNS"
    ISRC GBFHR0200012
    INDEX 01 30:56:30
  TRACK 13 AUDIO
    TITLE "Summer Hot As This"
    ISRC GBFHR0200013
    INDEX 01 33:36:42
  TRACK 14 AUDIO
    TITLE "Miniature Sun"
    ISRC GBFHR0200014
    INDEX 01 37:52:15
  TRACK 15 AUDIO
    TITLE "I Bought Myself A Liarbird"
    ISRC GBFHR0200015
    INDEX 01 42:14:45
  TRACK 16 AUDIO
    TITLE "Complicated Game"
    ISRC GBFHR0200016
    INDEX 00 45:16:67
    INDEX 01 45:18:30
  TRACK 17 AUDIO
    TITLE "Wonder Annual"
    ISRC GBFHR0200017
    INDEX 01 48:00:65
  TRACK 18 AUDIO
    TITLE "Space Wray"
    ISRC GBFHR0200018
    INDEX 01 52:04:25
  TRACK 19 AUDIO
    TITLE "Rocket"
    ISRC GBFHR0200019
    INDEX 01 53:50:45
